<?xml version="1.0" encoding="utf-8"?>
<!-- Generator: Adobe Illustrator 16.0.0, SVG Export Plug-In . SVG Version: 6.00 Build 0)  -->
<!DOCTYPE svg PUBLIC "-//W3C//DTD SVG 1.1//EN" "http://www.w3.org/Graphics/SVG/1.1/DTD/svg11.dtd">
<svg version="1.1" id="Layer_1_2_" xmlns="http://www.w3.org/2000/svg" xmlns:xlink="http://www.w3.org/1999/xlink" x="0px" y="0px"
	 width="595.279px" height="614px" viewBox="0 0 595.279 614" enable-background="new 0 0 595.279 614" xml:space="preserve">
<g display="none">
	<g display="inline">
		<path fill="#0AB6D1" d="M513.927,254.267c-1.984,0-5.953-1.984-7.938-1.984c-3.968,0-5.952,0-7.937,1.984l-49.606,49.606
			c0,1.984-1.982,5.953-1.982,7.938v396.854c0,5.952,3.969,9.921,9.921,9.921h79.371c5.95,0,9.921-3.969,9.921-9.921V291.968
			c0-3.969,0-5.953-1.984-7.937L513.927,254.267z M525.83,698.742h-59.525V315.779l39.685-39.687l19.844,19.842L525.83,698.742
			L525.83,698.742z M123.025,440.788c-3.969,0-7.938,0-11.905,3.968l-31.75,31.749l-33.73-33.731
			c-1.984-1.983-5.952-3.97-9.923-1.983c-3.969,1.985-5.951,5.952-5.951,9.921v257.955c0,5.952,3.969,9.921,9.922,9.921h79.37
			c5.951,0,9.922-3.969,9.922-9.921V450.709C128.978,446.74,126.993,442.772,123.025,440.788z M109.135,698.742H49.607
			l1.982-224.224l21.827,21.827c3.97,3.97,9.921,3.97,13.892,0l21.825-21.827L109.135,698.742L109.135,698.742z M571.469,125.289
			c-1.984-1.984-3.969-1.984-5.953-1.984h-69.449c-3.969,0-7.938,5.953-9.921,7.938c-1.984,1.984,0,7.937,1.983,9.921l31.749,31.749
			L416.696,278.078l-51.591-53.575c-1.984-1.984-5.952-1.984-7.937-1.984c-3.971,0-5.953,1.984-5.953,3.968l-73.42,91.277
			l-51.591-53.576c-1.982-1.984-5.952-1.984-7.937-1.984c-3.971,0-5.953,1.984-7.938,3.969L79.37,416.977l-53.575-51.591
			c-3.968-3.969-9.921-3.969-13.89,0c-3.969,3.968-3.969,9.921,0,13.89l59.528,59.528c1.982,0,5.95,1.984,7.937,1.984
			c3.969,0,5.953-1.984,7.938-3.969L218.27,286.015l51.591,53.575c1.984,1.984,5.952,1.984,7.937,1.984
			c3.971,0,5.953-1.984,5.953-3.969l73.42-91.275l51.591,53.575c3.969,3.968,9.921,3.968,13.89,0L533.77,186.802l33.732,33.732
			c1.982,0,5.951,1.984,7.938,1.984s1.984,0,5.952,0c3.969-1.984,5.953-5.953,5.953-9.921v-79.371
			C587.344,127.273,577.424,121.321,571.469,125.289z M565.516,188.786l-45.638-45.638h45.638V188.786z M365.105,284.031
			c-1.984-1.984-5.952-1.984-7.937-1.984c-3.971,0-5.953,1.984-7.938,3.968l-39.686,59.528c-1.984,1.984-1.984,3.968-1.984,5.953
			v357.168c0,5.952,3.969,9.921,9.922,9.921h79.371c5.952,0,9.921-3.969,9.921-9.921V331.652c0-3.967,0-5.952-1.984-7.938
			L365.105,284.031z M386.932,698.742h-59.528V355.464l31.749-47.623l27.779,27.78V698.742L386.932,698.742z M265.892,371.338
			c0-3.968,0-5.953-1.984-7.938l-39.686-39.687c-3.97-3.968-9.923-3.968-13.892,0L170.646,363.4c0,1.983-1.984,5.953-1.984,7.938
			v337.326c0,5.952,3.969,9.921,9.922,9.921h79.37c5.953,0,9.922-3.969,7.938-9.921V371.338L265.892,371.338z M248.033,698.742
			h-59.528V375.307l29.767-29.764l29.764,29.764L248.033,698.742L248.033,698.742z"/>
	</g>
</g>
<g display="none">
	<g display="inline">
		<path fill="#0AB6D1" d="M538.06,707.094H93.848c-5.794,0-9.657-3.861-9.657-9.656V446.36c0-5.794,3.863-9.656,9.657-9.656H538.06
			c5.794,0,9.657,3.862,9.657,9.656v251.077C547.719,703.23,543.854,707.094,538.06,707.094z M103.504,687.78h424.898V456.018
			H103.504V687.78z"/>
	</g>
	<g display="inline">
		<path fill="#0AB6D1" d="M576.687,456.018H74.534c-1.931,0-5.794-1.931-7.726-3.86c-1.934-1.934-1.934-3.863-1.934-5.795v-17.384
			c0-5.795,5.794-9.654,9.657-9.654c5.794,0,9.657,3.859,9.657,9.654v7.728h482.84v-57.94H122.818c-5.794,0-9.656-3.863-9.656-9.656
			c0-5.795,3.862-9.657,9.656-9.657h453.869c5.794,0,9.656,3.862,9.656,9.657v77.254
			C586.344,452.155,582.481,456.018,576.687,456.018z"/>
	</g>
	<g display="inline">
		<path fill="#0AB6D1" d="M64.877,436.704c-32.833,0-57.938-25.108-57.938-57.94c0-32.834,25.105-57.94,57.938-57.94
			c32.834,0,57.941,25.106,57.941,57.94C122.818,411.596,97.711,436.704,64.877,436.704z M64.877,340.136
			c-21.244,0-38.626,17.382-38.626,38.628c0,21.244,17.382,38.627,38.626,38.627c21.245,0,38.627-17.383,38.627-38.627
			C103.504,357.518,86.122,340.136,64.877,340.136z"/>
	</g>
	<g display="inline">
		<path fill="#0AB6D1" d="M122.818,365.244c-3.863,0-7.727-1.932-9.656-5.794c-1.931-5.794,0-9.657,5.793-11.589l411.381-142.919
			l-17.384-54.078L68.74,311.166l1.932,1.932c3.863,3.862,3.863,9.656,0,13.521c-3.861,3.86-9.654,3.86-13.519,0l-11.588-11.589
			c-1.934-1.933-3.863-5.795-3.863-9.656c0-3.862,3.863-5.794,7.725-5.794l465.46-171.891c1.93,0,5.793,0,7.725,0
			c1.933,1.932,3.863,3.863,5.794,5.794l23.176,73.392c1.934,5.794-1.931,9.657-5.793,11.588L124.749,365.244H122.818z"/>
	</g>
	<g display="inline">
		<path fill="#0AB6D1" d="M149.857,452.155c-1.933,0-3.863,0-5.794-1.934c-3.863-3.861-3.863-9.655,0-13.52l67.598-69.529
			c3.863-3.86,9.657-3.86,13.521,0c3.861,3.863,3.861,9.657,0,13.521l-67.599,69.528
			C153.719,450.224,151.788,452.155,149.857,452.155z"/>
	</g>
	<g display="inline">
		<path fill="#0AB6D1" d="M238.7,456.018c-1.932,0-5.794,0-5.794-1.931c-3.863-3.863-3.863-9.658,0-13.521l69.528-71.461
			c3.862-3.862,9.657-3.862,13.52,0c3.863,3.861,3.863,9.658,0,13.521l-69.529,71.461C244.493,454.087,240.63,456.018,238.7,456.018
			z"/>
	</g>
	<g display="inline">
		<path fill="#0AB6D1" d="M335.267,456.018c-1.931,0-5.794,0-7.728-1.931c-3.86-3.863-3.86-9.658,0-13.521l73.394-75.323
			c3.863-3.863,9.656-3.863,13.52,0c3.864,3.862,3.863,9.657,0,13.521l-73.392,75.323
			C341.061,454.087,337.198,456.018,335.267,456.018z"/>
	</g>
	<g display="inline">
		<path fill="#0AB6D1" d="M431.836,456.018c-1.933,0-5.794,0-5.794-1.931c-3.862-3.863-3.862-9.658,0-13.521l69.527-69.528
			c3.863-3.863,9.657-3.863,13.521,0c3.861,3.862,3.861,9.657,0,13.519l-69.528,69.53
			C437.631,454.087,433.766,456.018,431.836,456.018z"/>
	</g>
	<g display="inline">
		<path fill="#0AB6D1" d="M528.403,456.018c-1.931,0-5.794,0-7.726-1.931c-3.863-3.863-3.863-9.658,0-13.521l46.354-46.354
			c3.861-3.86,9.656-3.86,13.521,0c3.86,3.863,3.86,9.657,0,13.521l-46.354,46.354C534.197,454.087,530.336,456.018,528.403,456.018
			z"/>
	</g>
	<g display="inline">
		<path fill="#0AB6D1" d="M192.346,342.066c-1.933,0-3.863,0-5.793-1.933l-69.529-48.284c-5.793-3.863-5.793-9.657-3.862-13.52
			c3.862-3.862,9.656-5.794,13.521-1.931l69.527,48.285c3.863,3.862,5.794,9.656,1.933,13.521
			C198.141,340.136,194.278,342.066,192.346,342.066z"/>
	</g>
	<g display="inline">
		<path fill="#0AB6D1" d="M285.052,305.372c-1.934,0-3.863,0-5.796-1.932l-69.527-42.49c-3.863-1.931-5.793-9.657-3.863-13.519
			c3.863-3.863,9.657-5.794,15.452-3.863l69.529,42.49c3.86,3.863,5.793,9.657,3.86,15.452
			C292.777,303.44,288.915,305.372,285.052,305.372z"/>
	</g>
	<g display="inline">
		<path fill="#0AB6D1" d="M366.171,272.539c-1.934,0-3.863,0-5.797-1.932l-69.526-42.49c-3.863-1.931-5.794-9.657-3.863-13.519
			c1.931-3.863,9.656-5.794,13.521-3.863l69.526,42.49c3.863,1.931,5.794,9.657,3.863,13.52
			C373.895,270.607,370.031,272.539,366.171,272.539z"/>
	</g>
	<g display="inline">
		<path fill="#0AB6D1" d="M456.943,245.5c-1.932,0-3.863,0-5.794-1.932l-69.529-42.49c-3.861-1.931-5.794-9.657-3.861-13.519
			c1.932-3.863,9.656-5.794,13.521-3.863l69.529,42.49c3.861,1.931,5.793,9.657,3.861,13.52
			C462.738,243.568,458.874,245.5,456.943,245.5z"/>
	</g>
	<g display="inline">
		<path fill="#0AB6D1" d="M532.266,210.735c-1.932,0-3.863,0-5.794-1.932l-69.529-42.49c-3.863-1.932-5.794-9.657-3.863-13.52
			c1.934-3.863,9.658-5.794,13.521-3.863l69.529,42.49c3.86,1.932,5.794,9.657,3.86,13.52
			C538.06,208.804,536.13,210.735,532.266,210.735z"/>
	</g>
	<g display="inline">
		<path fill="#0AB6D1" d="M171.101,610.526h-19.313c-5.793,0-9.656-3.863-9.656-9.657s3.863-9.656,9.656-9.656h19.313
			c5.794,0,9.656-3.863,9.656-13.52c0-7.728-5.794-15.451-13.52-15.451h-15.452c-5.793,0-9.656-3.862-9.656-9.657v-48.283
			c0-5.795,3.863-9.657,9.656-9.657h38.627c5.794,0,9.657,3.862,9.657,9.657c0,5.793-3.863,9.656-9.657,9.656h-28.97v28.971h5.794
			c17.382,0,32.833,15.451,32.833,34.767C200.071,597.008,188.484,610.526,171.101,610.526z"/>
	</g>
	<g display="inline">
		<path fill="#0AB6D1" d="M267.67,610.526c-5.794,0-9.655-3.863-9.655-9.657v-9.656h-28.972c-3.861,0-5.794-1.932-7.725-3.863
			c-1.932-1.932-1.932-5.794,0-9.654l38.626-77.255c1.931-3.862,7.726-5.796,13.52-3.862c3.862,1.931,5.793,7.726,3.862,13.519
			l-32.833,61.807h23.176c5.794,0,9.657,3.86,9.657,9.654v19.313C277.326,606.663,273.464,610.526,267.67,610.526z"/>
	</g>
	<g display="inline">
		<path fill="#0AB6D1" d="M267.67,649.153H151.788c-5.793,0-9.656-3.862-9.656-9.657c0-5.794,3.863-9.656,9.656-9.656H267.67
			c5.794,0,9.657,3.862,9.657,9.656C277.326,645.291,273.464,649.153,267.67,649.153z"/>
	</g>
	<g display="inline">
		<path fill="#0AB6D1" d="M480.119,533.271H344.925c-5.793,0-9.656-3.862-9.656-9.656s3.863-9.657,9.656-9.657h135.194
			c5.793,0,9.656,3.863,9.656,9.657S485.912,533.271,480.119,533.271z"/>
	</g>
	<g display="inline">
		<path fill="#0AB6D1" d="M480.119,591.213H344.925c-5.793,0-9.656-3.863-9.656-9.657s3.863-9.654,9.656-9.654h135.194
			c5.793,0,9.656,3.86,9.656,9.654S485.912,591.213,480.119,591.213z"/>
	</g>
	<g display="inline">
		<path fill="#0AB6D1" d="M480.119,649.153H344.925c-5.793,0-9.656-3.862-9.656-9.657c0-5.794,3.863-9.656,9.656-9.656h135.194
			c5.793,0,9.656,3.862,9.656,9.656C489.776,645.291,485.912,649.153,480.119,649.153z"/>
	</g>
</g>
<g>
	<g>
		<path fill="#0AB6D1" d="M466.302,518.066c-57.543,0-109.135-119.055-109.135-248.033C357.167,141.056,408.759,22,466.302,22
			s109.135,119.056,109.135,248.034C575.436,399.012,523.844,518.066,466.302,518.066z M466.302,41.843
			c-39.686,0-89.291,101.198-89.291,228.191c0,126.994,49.605,228.191,89.291,228.191s89.293-101.197,89.293-228.191
			C555.594,143.041,505.987,41.843,466.302,41.843z"/>
	</g>
	<g>
		<path fill="#0AB6D1" d="M446.46,339.482c-5.953,0-9.922-3.969-9.922-9.92c0-5.953,3.969-9.922,9.922-9.922
			c23.811,0,49.605-21.828,49.605-49.607s-25.795-49.607-49.605-49.607c-5.953,0-9.922-3.968-9.922-9.921
			c0-5.952,3.969-9.921,9.922-9.921c33.732,0,69.449,29.764,69.449,69.449C515.909,309.719,480.192,339.482,446.46,339.482z"/>
	</g>
	<g>
		<path fill="#0AB6D1" d="M426.616,498.225c-1.984,0-3.969,0-5.953-1.984L244.064,379.168l-134.93-9.922l0,0
			c-51.591,0-89.292-43.652-89.292-99.212c0-53.575,35.717-89.292,89.292-89.292h134.93L410.743,63.67
			c3.969-1.984,9.92-1.984,11.904,1.984c3.969,3.969,3.969,7.938,1.984,11.906c-29.764,45.638-47.621,117.072-47.621,192.474
			c0,81.355,29.764,170.646,57.543,212.316c1.984,3.969,1.984,9.922-1.984,11.906C432.569,498.225,428.6,498.225,426.616,498.225z
			 M109.134,200.584c-41.67,0-69.449,27.779-69.449,69.449c0,45.638,29.764,79.371,69.449,79.371l138.898,9.922
			c1.984,0,3.969,0,3.969,1.984l144.851,97.229c-17.859-45.639-39.686-115.088-39.686-188.505
			c0-61.512,11.906-121.041,31.748-166.679L253.986,198.6c-1.984,1.984-3.969,1.984-5.953,1.984H109.134z"/>
	</g>
	<g>
		<path fill="#0AB6D1" d="M228.19,597.438c-1.984,0-3.969,0-5.953-1.984l-59.527-39.686c-15.874-9.92-23.812-27.779-23.812-47.621
			V412.9l-37.701-47.621c-3.969-3.969-1.984-9.922,1.984-13.891s9.921-1.984,13.89,1.984l39.686,49.607
			c1.984,1.982,1.984,3.967,1.984,5.951v99.215c0,13.889,5.953,23.811,15.874,31.748l53.575,35.717l3.969-3.969
			c7.937-7.938,17.858-23.812,17.858-31.748v-11.906c0-9.922-7.938-23.811-17.858-31.748c-9.922-9.922-5.953-23.811-3.969-35.717
			v-3.969l7.938-77.387c-47.623-7.938-77.387-59.527-77.387-109.134c0-53.575,35.717-89.292,89.292-89.292
			c5.953,0,9.921,3.968,9.921,9.921c0,5.953-3.968,9.921-9.921,9.921c-41.67,0-69.449,27.779-69.449,69.449
			c0,43.654,27.779,89.292,69.449,89.292c1.984,0,5.953,1.984,7.938,3.969c1.983,1.984,1.983,3.969,1.983,7.936l-11.905,95.246
			c0,3.969-3.969,13.889-1.984,15.873c11.906,11.906,21.827,31.748,21.827,45.639v9.922c0,15.873-11.905,35.717-21.827,47.621
			l-9.921,9.922C234.143,595.453,230.174,597.438,228.19,597.438z"/>
	</g>
</g>
</svg>
