<?xml version="1.0" encoding="utf-8"?>
<!-- Generator: Adobe Illustrator 16.0.0, SVG Export Plug-In . SVG Version: 6.00 Build 0)  -->
<!DOCTYPE svg PUBLIC "-//W3C//DTD SVG 1.1//EN" "http://www.w3.org/Graphics/SVG/1.1/DTD/svg11.dtd">
<svg version="1.1" id="Layer_1_2_" xmlns="http://www.w3.org/2000/svg" xmlns:xlink="http://www.w3.org/1999/xlink" x="0px" y="0px"
	 width="595.279px" height="614px" viewBox="0 114.445 595.279 614" enable-background="new 0 114.445 595.279 614"
	 xml:space="preserve">
<g display="none">
	<g display="inline">
		<path fill="#0AB6D1" d="M513.925,254.267c-1.984,0-5.953-1.984-7.938-1.984c-3.968,0-5.952,0-7.937,1.984l-49.606,49.606
			c0,1.984-1.984,5.953-1.984,7.938v396.854c0,5.952,3.969,9.921,9.921,9.921h79.371c5.952,0,9.921-3.969,9.921-9.921V291.968
			c0-3.969,0-5.953-1.984-7.937L513.925,254.267z M525.83,698.742h-59.527V315.779l39.685-39.685l19.843,19.842V698.742z
			 M123.025,440.788c-3.969,0-7.938,0-11.905,3.968L79.37,476.505l-33.732-33.733c-1.984-1.983-5.952-3.968-9.921-1.983
			s-5.953,5.952-5.953,9.921v257.955c0,5.952,3.969,9.921,9.922,9.921h79.37c5.953,0,9.922-3.969,9.922-9.921V450.709
			C128.978,446.74,126.993,442.772,123.025,440.788z M109.135,698.742H49.607l1.984-224.222l21.827,21.827
			c3.968,3.968,9.921,3.968,13.89,0l21.827-21.827V698.742z M571.469,125.289c-1.984-1.984-3.969-1.984-5.953-1.984h-69.449
			c-3.969,0-7.938,5.953-9.921,7.938c-1.984,1.984,0,7.937,1.983,9.921l31.749,31.749L416.696,278.078l-51.591-53.575
			c-1.984-1.984-5.952-1.984-7.937-1.984c-3.969,0-5.953,1.984-5.953,3.968l-73.418,91.276l-51.591-53.575
			c-1.984-1.984-5.952-1.984-7.937-1.984c-3.969,0-5.953,1.984-7.938,3.969L79.37,416.977l-53.575-51.591
			c-3.968-3.969-9.921-3.969-13.89,0c-3.969,3.968-3.969,9.921,0,13.89l59.528,59.528c1.984,0,5.952,1.984,7.937,1.984
			c3.969,0,5.953-1.984,7.938-3.969L218.27,286.015l51.591,53.575c1.984,1.984,5.952,1.984,7.937,1.984
			c3.969,0,5.953-1.984,5.953-3.968l73.418-91.276l51.591,53.575c3.969,3.968,9.921,3.968,13.89,0l111.119-113.103l33.732,33.732
			c1.984,0,5.953,1.984,7.938,1.984s1.984,0,5.952,0c3.969-1.984,5.953-5.953,5.953-9.921v-79.371
			C587.343,127.273,577.422,121.321,571.469,125.289z M565.516,188.786l-45.638-45.638h45.638V188.786z M365.105,284.031
			c-1.984-1.984-5.952-1.984-7.937-1.984c-3.969,0-5.953,1.984-7.938,3.968l-39.686,59.528c-1.984,1.984-1.984,3.968-1.984,5.953
			v357.168c0,5.952,3.969,9.921,9.922,9.921h79.371c5.952,0,9.921-3.969,9.921-9.921V331.653c0-3.968,0-5.953-1.984-7.937
			L365.105,284.031z M386.932,698.742h-59.528V355.464l31.749-47.623l27.779,27.78V698.742z M265.892,371.338
			c0-3.968,0-5.953-1.984-7.937l-39.686-39.686c-3.968-3.968-9.921-3.968-13.89,0l-39.686,39.686c0,1.984-1.984,5.953-1.984,7.937
			v337.326c0,5.952,3.969,9.921,9.922,9.921h79.37c5.953,0,9.922-3.969,7.938-9.921V371.338z M248.033,698.742h-59.528V375.307
			l29.765-29.764l29.764,29.764V698.742z"/>
	</g>
</g>
<g display="none">
	<g display="inline">
		<path fill="#0AB6D1" d="M538.06,707.094H93.848c-5.794,0-9.657-3.863-9.657-9.656V446.36c0-5.794,3.863-9.656,9.657-9.656H538.06
			c5.794,0,9.657,3.862,9.657,9.656v251.077C547.717,703.23,543.854,707.094,538.06,707.094z M103.504,687.78h424.898V456.018
			H103.504V687.78z"/>
	</g>
	<g display="inline">
		<path fill="#0AB6D1" d="M576.687,456.018H74.534c-1.931,0-5.794-1.931-7.726-3.862c-1.932-1.932-1.932-3.863-1.932-5.795v-17.382
			c0-5.795,5.794-9.656,9.657-9.656c5.794,0,9.657,3.861,9.657,9.656v7.726h482.84v-57.941H122.818
			c-5.794,0-9.656-3.863-9.656-9.657s3.862-9.657,9.656-9.657h453.869c5.794,0,9.656,3.863,9.656,9.657v77.254
			C586.343,452.155,582.481,456.018,576.687,456.018z"/>
	</g>
	<g display="inline">
		<path fill="#0AB6D1" d="M64.877,436.704c-32.833,0-57.94-25.108-57.94-57.941s25.107-57.941,57.94-57.941
			c32.834,0,57.941,25.108,57.941,57.941S97.711,436.704,64.877,436.704z M64.877,340.136c-21.244,0-38.626,17.382-38.626,38.627
			s17.382,38.627,38.626,38.627c21.245,0,38.627-17.382,38.627-38.627S86.122,340.136,64.877,340.136z"/>
	</g>
	<g display="inline">
		<path fill="#0AB6D1" d="M122.818,365.244c-3.863,0-7.725-1.932-9.656-5.794c-1.931-5.794,0-9.657,5.793-11.588l411.379-142.92
			l-17.382-54.078L68.74,311.166l1.932,1.931c3.863,3.863,3.863,9.657,0,13.52c-3.863,3.862-9.656,3.862-13.519,0l-11.588-11.588
			c-1.932-1.932-3.863-5.794-3.863-9.657c0-3.862,3.863-5.794,7.725-5.794l465.458-171.891c1.93,0,5.793,0,7.725,0
			c1.932,1.932,3.863,3.863,5.794,5.794l23.176,73.392c1.932,5.794-1.931,9.657-5.793,11.588L124.749,365.244H122.818z"/>
	</g>
	<g display="inline">
		<path fill="#0AB6D1" d="M149.857,452.155c-1.931,0-3.863,0-5.794-1.932c-3.863-3.863-3.863-9.657,0-13.52l67.598-69.529
			c3.863-3.862,9.657-3.862,13.519,0c3.863,3.863,3.863,9.657,0,13.52l-67.597,69.529
			C153.719,450.224,151.788,452.155,149.857,452.155z"/>
	</g>
	<g display="inline">
		<path fill="#0AB6D1" d="M238.7,456.018c-1.932,0-5.794,0-5.794-1.931c-3.863-3.863-3.863-9.658,0-13.521l69.528-71.46
			c3.862-3.863,9.657-3.863,13.52,0c3.863,3.862,3.863,9.657,0,13.52l-69.529,71.461C244.493,454.087,240.63,456.018,238.7,456.018z
			"/>
	</g>
	<g display="inline">
		<path fill="#0AB6D1" d="M335.267,456.018c-1.931,0-5.794,0-7.726-1.931c-3.862-3.863-3.862-9.658,0-13.521l73.392-75.323
			c3.863-3.863,9.656-3.863,13.52,0s3.863,9.657,0,13.52l-73.392,75.324C341.061,454.087,337.198,456.018,335.267,456.018z"/>
	</g>
	<g display="inline">
		<path fill="#0AB6D1" d="M431.834,456.018c-1.931,0-5.793,0-5.793-1.931c-3.863-3.863-3.863-9.658,0-13.521l69.528-69.528
			c3.863-3.863,9.657-3.863,13.52,0c3.863,3.862,3.863,9.657,0,13.519l-69.528,69.53
			C437.629,454.087,433.766,456.018,431.834,456.018z"/>
	</g>
	<g display="inline">
		<path fill="#0AB6D1" d="M528.403,456.018c-1.931,0-5.794,0-7.726-1.931c-3.863-3.863-3.863-9.658,0-13.521l46.354-46.353
			c3.861-3.862,9.656-3.862,13.52,0c3.862,3.863,3.862,9.657,0,13.52l-46.353,46.353
			C534.197,454.087,530.334,456.018,528.403,456.018z"/>
	</g>
	<g display="inline">
		<path fill="#0AB6D1" d="M192.346,342.067c-1.931,0-3.863,0-5.793-1.932l-69.529-48.284c-5.793-3.863-5.793-9.657-3.862-13.52
			c3.862-3.862,9.656-5.794,13.52-1.931l69.529,48.284c3.863,3.863,5.794,9.657,1.931,13.52
			C198.141,340.136,194.278,342.067,192.346,342.067z"/>
	</g>
	<g display="inline">
		<path fill="#0AB6D1" d="M285.052,305.372c-1.932,0-3.863,0-5.794-1.932l-69.529-42.49c-3.863-1.931-5.793-9.657-3.863-13.519
			c3.863-3.863,9.657-5.794,15.452-3.863l69.529,42.49c3.862,3.863,5.793,9.657,3.862,15.452
			C292.777,303.44,288.915,305.372,285.052,305.372z"/>
	</g>
	<g display="inline">
		<path fill="#0AB6D1" d="M366.169,272.539c-1.932,0-3.863,0-5.795-1.932l-69.528-42.49c-3.863-1.931-5.794-9.657-3.863-13.519
			c1.931-3.863,9.656-5.794,13.52-3.863l69.528,42.49c3.863,1.931,5.794,9.657,3.863,13.52
			C373.895,270.607,370.031,272.539,366.169,272.539z"/>
	</g>
	<g display="inline">
		<path fill="#0AB6D1" d="M456.943,245.5c-1.932,0-3.863,0-5.794-1.932l-69.529-42.49c-3.863-1.931-5.794-9.657-3.863-13.519
			c1.932-3.863,9.658-5.794,13.521-3.863l69.529,42.49c3.861,1.931,5.793,9.657,3.861,13.52
			C462.738,243.568,458.874,245.5,456.943,245.5z"/>
	</g>
	<g display="inline">
		<path fill="#0AB6D1" d="M532.266,210.735c-1.932,0-3.863,0-5.794-1.932l-69.529-42.49c-3.863-1.932-5.794-9.657-3.863-13.52
			c1.932-3.863,9.658-5.794,13.52-3.863l69.529,42.49c3.862,1.932,5.794,9.657,3.862,13.52
			C538.06,208.804,536.128,210.735,532.266,210.735z"/>
	</g>
	<g display="inline">
		<path fill="#0AB6D1" d="M171.101,610.526h-19.313c-5.793,0-9.656-3.863-9.656-9.657s3.863-9.656,9.656-9.656h19.313
			c5.794,0,9.658-3.863,9.658-13.52c0-7.726-5.794-15.451-13.52-15.451h-15.452c-5.793,0-9.656-3.862-9.656-9.657v-48.283
			c0-5.795,3.863-9.657,9.656-9.657h38.627c5.794,0,9.657,3.862,9.657,9.657c0,5.793-3.863,9.656-9.657,9.656h-28.97v28.971h5.794
			c17.382,0,32.833,15.451,32.833,34.765S188.484,610.526,171.101,610.526z"/>
	</g>
	<g display="inline">
		<path fill="#0AB6D1" d="M267.67,610.526c-5.794,0-9.657-3.863-9.657-9.657v-9.656h-28.97c-3.863,0-5.794-1.932-7.725-3.863
			c-1.932-1.932-1.932-5.794,0-9.656l38.626-77.255c1.931-3.862,7.726-5.794,13.52-3.862c3.862,1.931,5.793,7.726,3.862,13.519
			l-32.833,61.805h23.176c5.794,0,9.657,3.862,9.657,9.656v19.313C277.326,606.663,273.464,610.526,267.67,610.526z"/>
	</g>
	<g display="inline">
		<path fill="#0AB6D1" d="M267.67,649.153H151.788c-5.793,0-9.656-3.862-9.656-9.657c0-5.794,3.863-9.656,9.656-9.656H267.67
			c5.794,0,9.657,3.862,9.657,9.656C277.326,645.291,273.464,649.153,267.67,649.153z"/>
	</g>
	<g display="inline">
		<path fill="#0AB6D1" d="M480.119,533.271H344.923c-5.793,0-9.656-3.862-9.656-9.656s3.863-9.657,9.656-9.657h135.196
			c5.793,0,9.656,3.863,9.656,9.657S485.912,533.271,480.119,533.271z"/>
	</g>
	<g display="inline">
		<path fill="#0AB6D1" d="M480.119,591.213H344.923c-5.793,0-9.656-3.863-9.656-9.657s3.863-9.656,9.656-9.656h135.196
			c5.793,0,9.656,3.862,9.656,9.656S485.912,591.213,480.119,591.213z"/>
	</g>
	<g display="inline">
		<path fill="#0AB6D1" d="M480.119,649.153H344.923c-5.793,0-9.656-3.862-9.656-9.657c0-5.794,3.863-9.656,9.656-9.656h135.196
			c5.793,0,9.656,3.862,9.656,9.656C489.776,645.291,485.912,649.153,480.119,649.153z"/>
	</g>
</g>
<g>
	<g>
		<g>
			<path fill="#0AB6D1" d="M455.381,361.862c-5.952,0-9.921-3.968-9.921-9.921V213.042c0-35.717-45.639-69.45-79.371-69.45H217.27
				c-35.717,0-69.45,33.732-69.45,69.45v138.898c0,5.953-3.968,9.921-9.921,9.921s-9.921-3.968-9.921-9.921V213.042
				c0-47.623,41.669-89.292,89.292-89.292h148.819c45.639,0,99.214,41.67,99.214,89.292v138.898
				C465.303,357.894,461.334,361.862,455.381,361.862z"/>
		</g>
		<g>
			<path fill="#0AB6D1" d="M395.854,282.492H197.427c-5.953,0-9.922-3.969-9.922-9.921s3.969-9.921,9.922-9.921h198.427
				c5.952,0,9.921,3.969,9.921,9.921S401.806,282.492,395.854,282.492z"/>
		</g>
		<g>
			<path fill="#0AB6D1" d="M574.438,719.03H18.843c-5.953,0-9.922-3.969-9.922-9.921V272.57c0-5.953,3.969-9.921,9.922-9.921h79.37
				c5.953,0,9.922,3.969,9.922,9.921s-3.969,9.921-9.922,9.921H28.764v416.696h535.752V282.492h-69.449
				c-5.953,0-9.921-3.969-9.921-9.921s3.968-9.921,9.921-9.921h79.371c5.952,0,9.921,3.969,9.921,9.921v436.539
				C584.359,715.062,580.39,719.03,574.438,719.03z"/>
		</g>
	</g>
	<g>
		<path fill="#0AB6D1" d="M296.64,599.975c-1.984,0-3.969,0-5.952-1.984c-3.969-3.969-3.969-9.922,0-13.89l79.37-89.292
			c7.937-7.938,17.858-23.812,17.858-33.732c0-17.859-9.922-37.701-29.764-39.686c-9.922,0-29.765,1.985-41.67,13.89
			c-5.953,3.969-7.938,9.921-7.938,15.874s-3.968,9.922-9.921,9.922s-9.921-3.969-9.921-9.922c0-11.905,5.952-23.812,13.89-31.748
			c15.874-13.89,39.685-19.843,55.56-17.858c27.779,1.984,49.606,27.779,49.606,59.528c0,17.858-13.89,37.7-21.827,47.622
			l-79.371,89.292C302.593,597.99,298.624,599.975,296.64,599.975z"/>
	</g>
	<g>
		<path fill="#0AB6D1" d="M296.64,599.975c-1.984,0-5.952-1.984-7.937-3.969l-79.371-89.292
			c-7.937-7.938-21.827-27.779-21.827-45.638c0-29.765,17.858-59.528,49.607-59.528c17.858,0,41.669,3.968,57.543,19.843
			c7.938,7.937,11.905,17.858,11.905,29.764c0,5.953-3.968,9.922-9.921,9.922c-5.952,0-9.921-3.969-9.921-9.922
			s-1.984-11.905-5.953-15.874c-11.905-9.921-29.764-13.89-43.653-13.89c-17.858,0-29.765,19.843-29.765,39.686
			c0,9.921,7.938,23.811,17.858,31.748l79.371,89.292c3.968,3.969,3.968,9.921,0,13.89
			C300.609,599.975,298.624,599.975,296.64,599.975z"/>
	</g>
</g>
</svg>
