<?xml version="1.0" encoding="utf-8"?>
<!-- Generator: Adobe Illustrator 16.0.0, SVG Export Plug-In . SVG Version: 6.00 Build 0)  -->
<!DOCTYPE svg PUBLIC "-//W3C//DTD SVG 1.1//EN" "http://www.w3.org/Graphics/SVG/1.1/DTD/svg11.dtd">
<svg version="1.1" id="Layer_1_2_" xmlns="http://www.w3.org/2000/svg" xmlns:xlink="http://www.w3.org/1999/xlink" x="0px" y="0px"
	 width="595.279px" height="614px" viewBox="0 0 595.279 614" enable-background="new 0 0 595.279 614" xml:space="preserve">
<g display="none">
	<g display="inline">
		<path fill="#0AB6D1" d="M513.926,254.267c-1.984,0-5.953-1.984-7.938-1.984c-3.968,0-5.952,0-7.937,1.984l-49.606,49.606
			c0,1.984-1.983,5.953-1.983,7.938v396.854c0,5.952,3.969,9.921,9.921,9.921h79.371c5.951,0,9.921-3.969,9.921-9.921V291.968
			c0-3.969,0-5.953-1.984-7.937L513.926,254.267z M525.83,698.742h-59.526V315.779l39.685-39.686l19.843,19.842L525.83,698.742
			L525.83,698.742z M123.025,440.788c-3.969,0-7.938,0-11.905,3.968l-31.75,31.749l-33.731-33.732
			c-1.984-1.983-5.952-3.969-9.922-1.983c-3.969,1.985-5.952,5.952-5.952,9.921v257.955c0,5.952,3.969,9.921,9.922,9.921h79.37
			c5.952,0,9.922-3.969,9.922-9.921V450.709C128.978,446.74,126.993,442.772,123.025,440.788z M109.135,698.742H49.607
			l1.983-224.223l21.827,21.827c3.969,3.969,9.921,3.969,13.891,0l21.826-21.827V698.742z M571.469,125.289
			c-1.984-1.984-3.969-1.984-5.953-1.984h-69.449c-3.969,0-7.938,5.953-9.921,7.938c-1.984,1.984,0,7.937,1.983,9.921l31.749,31.749
			L416.696,278.078l-51.591-53.575c-1.984-1.984-5.952-1.984-7.937-1.984c-3.97,0-5.953,1.984-5.953,3.968l-73.419,91.277
			l-51.591-53.576c-1.983-1.984-5.952-1.984-7.937-1.984c-3.97,0-5.953,1.984-7.938,3.969L79.37,416.977l-53.575-51.591
			c-3.968-3.969-9.921-3.969-13.89,0c-3.969,3.968-3.969,9.921,0,13.89l59.528,59.528c1.983,0,5.951,1.984,7.937,1.984
			c3.969,0,5.953-1.984,7.938-3.969L218.27,286.015l51.591,53.575c1.984,1.984,5.952,1.984,7.937,1.984
			c3.97,0,5.953-1.984,5.953-3.969l73.419-91.275l51.591,53.575c3.969,3.968,9.921,3.968,13.89,0l111.119-113.103l33.732,33.732
			c1.983,0,5.952,1.984,7.938,1.984s1.984,0,5.952,0c3.969-1.984,5.953-5.953,5.953-9.921v-79.371
			C587.344,127.273,577.423,121.321,571.469,125.289z M565.516,188.786l-45.638-45.638h45.638V188.786z M365.105,284.031
			c-1.984-1.984-5.952-1.984-7.937-1.984c-3.97,0-5.953,1.984-7.938,3.968l-39.686,59.528c-1.984,1.984-1.984,3.968-1.984,5.953
			v357.168c0,5.952,3.969,9.921,9.922,9.921h79.371c5.952,0,9.921-3.969,9.921-9.921V331.652c0-3.967,0-5.952-1.984-7.937
			L365.105,284.031z M386.932,698.742h-59.528V355.464l31.749-47.623l27.779,27.78V698.742L386.932,698.742z M265.892,371.338
			c0-3.968,0-5.953-1.984-7.938l-39.686-39.686c-3.969-3.968-9.922-3.968-13.891,0L170.646,363.4c0,1.984-1.984,5.953-1.984,7.938
			v337.326c0,5.952,3.969,9.921,9.922,9.921h79.37c5.953,0,9.922-3.969,7.938-9.921V371.338L265.892,371.338z M248.033,698.742
			h-59.528V375.307l29.766-29.764l29.764,29.764L248.033,698.742L248.033,698.742z"/>
	</g>
</g>
<g display="none">
	<g display="inline">
		<path fill="#0AB6D1" d="M538.06,707.094H93.848c-5.794,0-9.657-3.862-9.657-9.656V446.36c0-5.794,3.863-9.656,9.657-9.656H538.06
			c5.794,0,9.657,3.862,9.657,9.656v251.077C547.718,703.23,543.854,707.094,538.06,707.094z M103.504,687.78h424.898V456.018
			H103.504V687.78z"/>
	</g>
	<g display="inline">
		<path fill="#0AB6D1" d="M576.687,456.018H74.534c-1.931,0-5.794-1.931-7.726-3.861c-1.933-1.933-1.933-3.863-1.933-5.795v-17.383
			c0-5.795,5.794-9.655,9.657-9.655c5.794,0,9.657,3.86,9.657,9.655v7.727h482.84v-57.941H122.818c-5.794,0-9.656-3.863-9.656-9.656
			c0-5.795,3.862-9.657,9.656-9.657h453.869c5.794,0,9.656,3.862,9.656,9.657v77.254
			C586.344,452.155,582.481,456.018,576.687,456.018z"/>
	</g>
	<g display="inline">
		<path fill="#0AB6D1" d="M64.877,436.704c-32.833,0-57.939-25.108-57.939-57.94c0-32.834,25.106-57.941,57.939-57.941
			c32.834,0,57.941,25.107,57.941,57.941C122.818,411.596,97.711,436.704,64.877,436.704z M64.877,340.136
			c-21.244,0-38.626,17.382-38.626,38.628c0,21.244,17.382,38.627,38.626,38.627c21.245,0,38.627-17.383,38.627-38.627
			C103.504,357.518,86.122,340.136,64.877,340.136z"/>
	</g>
	<g display="inline">
		<path fill="#0AB6D1" d="M122.818,365.244c-3.863,0-7.726-1.932-9.656-5.794c-1.931-5.794,0-9.657,5.793-11.589l411.38-142.919
			l-17.383-54.078L68.74,311.166l1.932,1.932c3.863,3.862,3.863,9.656,0,13.52c-3.862,3.861-9.655,3.861-13.519,0l-11.588-11.588
			c-1.933-1.933-3.863-5.795-3.863-9.657s3.863-5.794,7.725-5.794l465.459-171.891c1.93,0,5.793,0,7.725,0
			c1.932,1.932,3.863,3.863,5.794,5.794l23.176,73.392c1.933,5.794-1.931,9.657-5.793,11.588L124.749,365.244H122.818z"/>
	</g>
	<g display="inline">
		<path fill="#0AB6D1" d="M149.857,452.155c-1.932,0-3.863,0-5.794-1.933c-3.863-3.862-3.863-9.656,0-13.52l67.598-69.529
			c3.863-3.861,9.657-3.861,13.52,0c3.862,3.863,3.862,9.657,0,13.52l-67.598,69.529
			C153.719,450.224,151.788,452.155,149.857,452.155z"/>
	</g>
	<g display="inline">
		<path fill="#0AB6D1" d="M238.7,456.018c-1.932,0-5.794,0-5.794-1.931c-3.863-3.863-3.863-9.658,0-13.521l69.528-71.461
			c3.862-3.862,9.657-3.862,13.52,0c3.863,3.862,3.863,9.658,0,13.521l-69.529,71.461C244.493,454.087,240.63,456.018,238.7,456.018
			z"/>
	</g>
	<g display="inline">
		<path fill="#0AB6D1" d="M335.267,456.018c-1.931,0-5.794,0-7.727-1.931c-3.861-3.863-3.861-9.658,0-13.521l73.393-75.323
			c3.863-3.863,9.656-3.863,13.52,0c3.864,3.862,3.863,9.657,0,13.521l-73.392,75.323
			C341.061,454.087,337.198,456.018,335.267,456.018z"/>
	</g>
	<g display="inline">
		<path fill="#0AB6D1" d="M431.835,456.018c-1.932,0-5.793,0-5.793-1.931c-3.863-3.863-3.863-9.658,0-13.521l69.527-69.528
			c3.863-3.863,9.657-3.863,13.521,0c3.862,3.862,3.862,9.657,0,13.519l-69.528,69.53
			C437.63,454.087,433.766,456.018,431.835,456.018z"/>
	</g>
	<g display="inline">
		<path fill="#0AB6D1" d="M528.403,456.018c-1.931,0-5.794,0-7.726-1.931c-3.863-3.863-3.863-9.658,0-13.521l46.354-46.354
			c3.861-3.861,9.656-3.861,13.521,0c3.861,3.863,3.861,9.657,0,13.52l-46.354,46.354
			C534.197,454.087,530.335,456.018,528.403,456.018z"/>
	</g>
	<g display="inline">
		<path fill="#0AB6D1" d="M192.346,342.066c-1.932,0-3.863,0-5.793-1.932l-69.529-48.284c-5.793-3.863-5.793-9.657-3.862-13.52
			c3.862-3.862,9.656-5.794,13.521-1.931l69.528,48.284c3.863,3.863,5.794,9.657,1.932,13.521
			C198.141,340.136,194.278,342.066,192.346,342.066z"/>
	</g>
	<g display="inline">
		<path fill="#0AB6D1" d="M285.052,305.372c-1.933,0-3.863,0-5.795-1.932l-69.528-42.49c-3.863-1.931-5.793-9.657-3.863-13.519
			c3.863-3.863,9.657-5.794,15.452-3.863l69.529,42.49c3.861,3.863,5.793,9.657,3.861,15.452
			C292.777,303.44,288.915,305.372,285.052,305.372z"/>
	</g>
	<g display="inline">
		<path fill="#0AB6D1" d="M366.17,272.539c-1.933,0-3.863,0-5.796-1.932l-69.527-42.49c-3.863-1.931-5.794-9.657-3.863-13.519
			c1.931-3.863,9.656-5.794,13.521-3.863l69.527,42.49c3.863,1.931,5.794,9.657,3.863,13.52
			C373.895,270.607,370.031,272.539,366.17,272.539z"/>
	</g>
	<g display="inline">
		<path fill="#0AB6D1" d="M456.943,245.5c-1.932,0-3.863,0-5.794-1.932l-69.529-42.49c-3.862-1.931-5.794-9.657-3.862-13.519
			c1.932-3.863,9.657-5.794,13.521-3.863l69.529,42.49c3.861,1.931,5.793,9.657,3.861,13.52
			C462.738,243.568,458.874,245.5,456.943,245.5z"/>
	</g>
	<g display="inline">
		<path fill="#0AB6D1" d="M532.266,210.735c-1.932,0-3.863,0-5.794-1.932l-69.529-42.49c-3.863-1.932-5.794-9.657-3.863-13.52
			c1.933-3.863,9.658-5.794,13.521-3.863l69.529,42.49c3.861,1.932,5.794,9.657,3.861,13.52
			C538.06,208.804,536.129,210.735,532.266,210.735z"/>
	</g>
	<g display="inline">
		<path fill="#0AB6D1" d="M171.101,610.526h-19.313c-5.793,0-9.656-3.863-9.656-9.657s3.863-9.656,9.656-9.656h19.313
			c5.794,0,9.657-3.863,9.657-13.52c0-7.727-5.794-15.451-13.52-15.451h-15.452c-5.793,0-9.656-3.862-9.656-9.657v-48.283
			c0-5.795,3.863-9.657,9.656-9.657h38.627c5.794,0,9.657,3.862,9.657,9.657c0,5.793-3.863,9.656-9.657,9.656h-28.97v28.971h5.794
			c17.382,0,32.833,15.451,32.833,34.766C200.071,597.008,188.484,610.526,171.101,610.526z"/>
	</g>
	<g display="inline">
		<path fill="#0AB6D1" d="M267.67,610.526c-5.794,0-9.656-3.863-9.656-9.657v-9.656h-28.971c-3.862,0-5.794-1.932-7.725-3.863
			c-1.932-1.932-1.932-5.794,0-9.655l38.626-77.255c1.931-3.862,7.726-5.795,13.52-3.862c3.862,1.931,5.793,7.726,3.862,13.519
			l-32.833,61.806h23.176c5.794,0,9.657,3.861,9.657,9.655v19.313C277.326,606.663,273.464,610.526,267.67,610.526z"/>
	</g>
	<g display="inline">
		<path fill="#0AB6D1" d="M267.67,649.153H151.788c-5.793,0-9.656-3.862-9.656-9.657c0-5.794,3.863-9.656,9.656-9.656H267.67
			c5.794,0,9.657,3.862,9.657,9.656C277.326,645.291,273.464,649.153,267.67,649.153z"/>
	</g>
	<g display="inline">
		<path fill="#0AB6D1" d="M480.119,533.271H344.924c-5.793,0-9.656-3.862-9.656-9.656s3.863-9.657,9.656-9.657h135.195
			c5.793,0,9.656,3.863,9.656,9.657S485.912,533.271,480.119,533.271z"/>
	</g>
	<g display="inline">
		<path fill="#0AB6D1" d="M480.119,591.213H344.924c-5.793,0-9.656-3.863-9.656-9.657s3.863-9.655,9.656-9.655h135.195
			c5.793,0,9.656,3.861,9.656,9.655S485.912,591.213,480.119,591.213z"/>
	</g>
	<g display="inline">
		<path fill="#0AB6D1" d="M480.119,649.153H344.924c-5.793,0-9.656-3.862-9.656-9.657c0-5.794,3.863-9.656,9.656-9.656h135.195
			c5.793,0,9.656,3.862,9.656,9.656C489.776,645.291,485.912,649.153,480.119,649.153z"/>
	</g>
</g>
<g>
	<g>
		<path fill="#0AB6D1" d="M505.106,529.165h-36.333c-5.737,0-9.561-3.824-9.561-9.562c0-5.735,3.823-9.561,9.561-9.561h36.333
			c32.507,0,59.277-28.683,59.277-65.014V255.72c0-30.595-51.629-72.664-87.96-80.312c-30.597-5.736-38.245-28.683-43.981-45.893
			c-1.913-7.649-5.736-15.298-9.561-19.122c-11.475-13.385-38.244-21.034-76.489-21.034c-5.736,0-9.561-3.825-9.561-9.561
			c0-5.737,3.824-9.561,9.561-9.561c30.595,0,70.752,3.824,91.786,26.771c5.736,7.648,9.561,15.297,13.386,24.858
			c5.737,17.21,11.473,30.596,30.594,34.42c40.157,7.649,103.26,55.454,103.26,99.435v189.309
			C583.505,490.921,549.085,529.165,505.106,529.165z"/>
	</g>
	<g>
		<path fill="#0AB6D1" d="M478.335,175.408C478.335,175.408,476.424,175.408,478.335,175.408
			c-32.508-5.736-40.156-28.683-45.893-45.893c-1.913-7.649-5.736-15.298-9.561-19.122c-11.475-13.385-38.244-21.034-76.489-21.034
			c-5.736,0-9.561-3.825-9.561-9.561c0-5.737,3.824-9.561,9.561-9.561c30.595,0,70.752,3.824,91.786,26.771
			c5.736,7.648,9.561,15.297,13.386,24.858c5.737,17.21,11.473,30.596,30.594,34.42c3.826,1.912,5.737,5.737,5.737,11.473
			C487.895,171.583,482.158,175.408,478.335,175.408z"/>
	</g>
	<g>
		<path fill="#0AB6D1" d="M92.07,548.288H67.211c-32.507,0-57.365-24.859-57.365-57.367V280.579c0-28.683,0-49.717,21.035-82.225
			c26.77-40.157,166.361-45.893,181.659-45.893c19.122-3.825,22.947-17.209,28.683-32.508c3.825-7.648,5.737-17.21,11.474-24.858
			c21.034-21.035,63.102-24.859,93.697-24.859c5.737,0,9.562,3.824,9.562,9.561c0,5.736-5.736,9.561-9.562,9.561
			c-38.244,0-65.014,7.649-76.487,21.034c-3.825,3.824-5.737,11.473-9.562,17.21c-5.736,17.21-15.297,38.244-45.893,43.98
			c-57.366,1.912-152.976,13.385-168.273,38.244c-17.21,26.771-17.21,43.98-17.21,70.751v11.473v198.869
			c0,21.035,17.21,38.244,38.243,38.244H92.07c15.298,0,40.156-5.736,42.069-11.474c0-3.823,3.824-7.648,9.561-7.648h76.488
			c5.736,0,9.561,3.825,9.561,9.561c0,5.737-3.824,9.562-9.561,9.562h-70.751C137.963,546.375,92.07,548.288,92.07,548.288z"/>
	</g>
	<g>
		<path fill="#0AB6D1" d="M134.139,471.799c-5.737,0-9.562-3.824-9.562-9.561V232.774c0-5.737,3.825-9.562,9.562-9.562
			c5.736,0,9.561,3.824,9.561,9.562v229.464C143.699,467.975,139.875,471.799,134.139,471.799z"/>
	</g>
	<g>
		<path fill="#0AB6D1" d="M420.969,223.213H267.992c-1.912,0-5.736-1.912-7.649-1.912l-47.805-47.805
			c-3.825-3.824-3.825-9.561,0-13.385s9.562-3.825,13.385,0l45.894,43.98h145.327l42.068-38.244c3.823-3.824,9.561-3.824,13.385,0
			c3.826,3.825,3.826,9.561,0,13.386l-43.98,42.068C426.706,223.213,422.882,223.213,420.969,223.213z"/>
	</g>
	<g>
		<path fill="#0AB6D1" d="M115.017,181.145c-3.825,0-7.649-3.825-9.562-9.562v-34.419c0-1.912,0-5.737,1.913-7.649
			c1.912,0,5.736-1.912,7.649-1.912h76.487c5.737,0,9.562,3.824,9.562,9.561v19.122c0,5.737-3.824,9.561-9.562,9.561
			c-5.736,0-9.561-3.824-9.561-9.561v-9.561h-57.366v24.858C126.49,177.32,120.753,181.145,115.017,181.145
			C116.929,181.145,116.929,181.145,115.017,181.145z"/>
	</g>
	<g>
		<path fill="#0AB6D1" d="M401.846,165.847H287.115c-5.736,0-9.562-3.824-9.562-9.561c0-5.736,3.825-9.561,9.562-9.561h114.732
			c5.737,0,9.561,3.825,9.561,9.561C411.407,162.023,407.584,165.847,401.846,165.847z"/>
	</g>
	<g>
		<circle fill="#0AB6D1" cx="67.211" cy="261.457" r="19.122"/>
	</g>
	<g>
		<path fill="#0AB6D1" d="M344.48,548.288c-47.805,0-86.049-38.245-86.049-86.05c0-47.806,38.244-86.049,86.049-86.049
			c47.806,0,86.049,38.243,86.049,86.049C430.529,510.043,392.286,548.288,344.48,548.288z M344.48,395.311
			c-36.332,0-66.927,30.597-66.927,66.928s30.595,66.927,66.927,66.927s66.927-30.596,66.927-66.927S380.812,395.311,344.48,395.311
			z"/>
	</g>
	<g>
		<path fill="#0AB6D1" d="M344.48,605.653c-78.4,0-143.415-65.015-143.415-143.415S266.08,318.823,344.48,318.823
			c78.401,0,143.415,65.015,143.415,143.415S422.882,605.653,344.48,605.653z M344.48,337.945
			c-68.839,0-124.292,55.454-124.292,124.293c0,68.84,55.453,124.293,124.292,124.293c68.84,0,124.293-55.453,124.293-124.293
			C468.773,393.399,413.32,337.945,344.48,337.945z"/>
	</g>
	<g>
		<path fill="#0AB6D1" d="M478.335,471.799c-5.737,0-9.562-3.824-9.562-9.561V385.75c0-68.839-55.453-124.293-124.293-124.293
			c-68.839,0-124.292,55.454-124.292,124.293v76.488c0,5.736-3.824,9.561-9.562,9.561c-5.736,0-9.561-3.824-9.561-9.561V385.75
			c0-78.4,65.015-143.415,143.415-143.415c78.401,0,143.415,65.015,143.415,143.415v76.488
			C487.895,467.975,484.071,471.799,478.335,471.799z"/>
	</g>
</g>
</svg>
