<?xml version="1.0" encoding="utf-8"?>
<!-- Generator: Adobe Illustrator 16.0.0, SVG Export Plug-In . SVG Version: 6.00 Build 0)  -->
<!DOCTYPE svg PUBLIC "-//W3C//DTD SVG 1.1//EN" "http://www.w3.org/Graphics/SVG/1.1/DTD/svg11.dtd">
<svg version="1.1" id="Layer_1_2_" xmlns="http://www.w3.org/2000/svg" xmlns:xlink="http://www.w3.org/1999/xlink" x="0px" y="0px"
	 width="595.279px" height="614px" viewBox="0 114.445 595.279 614" enable-background="new 0 114.445 595.279 614"
	 xml:space="preserve">
<g>
	<g>
		<path fill="#0AB6D1" d="M513.925,254.267c-1.984,0-5.953-1.984-7.938-1.984c-3.968,0-5.952,0-7.937,1.984l-49.606,49.606
			c0,1.984-1.984,5.953-1.984,7.938v396.854c0,5.952,3.969,9.921,9.921,9.921h79.371c5.952,0,9.921-3.969,9.921-9.921V291.968
			c0-3.969,0-5.953-1.984-7.937L513.925,254.267z M525.83,698.742h-59.527V315.779l39.685-39.685l19.843,19.842V698.742z
			 M123.025,440.788c-3.969,0-7.938,0-11.905,3.968L79.37,476.505l-33.732-33.733c-1.984-1.983-5.952-3.968-9.921-1.983
			s-5.953,5.952-5.953,9.921v257.955c0,5.952,3.969,9.921,9.922,9.921h79.37c5.953,0,9.922-3.969,9.922-9.921V450.709
			C128.978,446.74,126.993,442.772,123.025,440.788z M109.135,698.742H49.607l1.984-224.222l21.827,21.827
			c3.968,3.968,9.921,3.968,13.89,0l21.827-21.827V698.742z M571.469,125.289c-1.984-1.984-3.969-1.984-5.953-1.984h-69.449
			c-3.969,0-7.938,5.953-9.921,7.938c-1.984,1.984,0,7.937,1.983,9.921l31.749,31.749L416.696,278.078l-51.591-53.575
			c-1.984-1.984-5.952-1.984-7.937-1.984c-3.969,0-5.953,1.984-5.953,3.968l-73.418,91.276l-51.591-53.575
			c-1.984-1.984-5.952-1.984-7.937-1.984c-3.969,0-5.953,1.984-7.938,3.969L79.37,416.977l-53.575-51.591
			c-3.968-3.969-9.921-3.969-13.89,0c-3.969,3.968-3.969,9.921,0,13.89l59.528,59.528c1.984,0,5.952,1.984,7.937,1.984
			c3.969,0,5.953-1.984,7.938-3.969L218.27,286.015l51.591,53.575c1.984,1.984,5.952,1.984,7.937,1.984
			c3.969,0,5.953-1.984,5.953-3.968l73.418-91.276l51.591,53.575c3.969,3.968,9.921,3.968,13.89,0l111.119-113.103l33.732,33.732
			c1.984,0,5.953,1.984,7.938,1.984s1.984,0,5.952,0c3.969-1.984,5.953-5.953,5.953-9.921v-79.371
			C587.343,127.273,577.422,121.321,571.469,125.289z M565.516,188.786l-45.638-45.638h45.638V188.786z M365.105,284.031
			c-1.984-1.984-5.952-1.984-7.937-1.984c-3.969,0-5.953,1.984-7.938,3.968l-39.686,59.528c-1.984,1.984-1.984,3.968-1.984,5.953
			v357.168c0,5.952,3.969,9.921,9.922,9.921h79.371c5.952,0,9.921-3.969,9.921-9.921V331.653c0-3.968,0-5.953-1.984-7.937
			L365.105,284.031z M386.932,698.742h-59.528V355.464l31.749-47.623l27.779,27.78V698.742z M265.892,371.338
			c0-3.968,0-5.953-1.984-7.937l-39.686-39.686c-3.968-3.968-9.921-3.968-13.89,0l-39.686,39.686c0,1.984-1.984,5.953-1.984,7.937
			v337.326c0,5.952,3.969,9.921,9.922,9.921h79.37c5.953,0,9.922-3.969,7.938-9.921V371.338z M248.033,698.742h-59.528V375.307
			l29.765-29.764l29.764,29.764V698.742z"/>
	</g>
</g>
</svg>
